<svg width="1040" height="344" viewBox="0 0 1040 344" fill="none" xmlns="http://www.w3.org/2000/svg">
<line x1="62.4597" y1="224.621" x2="420.621" y2="45.5403" stroke="black" stroke-width="11" stroke-linecap="round"/>
<line x1="5.5" y1="285.5" x2="951.501" y2="285.5" stroke="black" stroke-width="11" stroke-linecap="round"/>
<line x1="143.5" y1="338.5" x2="143.5" y2="145.5" stroke="black" stroke-width="11" stroke-linecap="round"/>
<line x1="656.357" y1="201.442" x2="372.442" y2="7.64337" stroke="black" stroke-width="11" stroke-linecap="round"/>
<path d="M158.213 272V194.3H191.846C198.802 194.3 204.796 195.447 209.828 197.741C214.86 199.961 218.745 203.18 221.483 207.398C224.221 211.616 225.59 216.648 225.59 222.494C225.59 228.266 224.221 233.261 221.483 237.479C218.745 241.697 214.86 244.953 209.828 247.247C204.796 249.467 198.802 250.577 191.846 250.577H168.203L176.195 242.474V272H158.213ZM176.195 244.472L168.203 235.925H190.847C196.397 235.925 200.541 234.741 203.279 232.373C206.017 230.005 207.386 226.712 207.386 222.494C207.386 218.202 206.017 214.872 203.279 212.504C200.541 210.136 196.397 208.952 190.847 208.952H168.203L176.195 200.405V244.472ZM238.428 272V194.3H272.061C279.017 194.3 285.011 195.447 290.043 197.741C295.075 199.961 298.96 203.18 301.698 207.398C304.436 211.616 305.805 216.648 305.805 222.494C305.805 228.266 304.436 233.261 301.698 237.479C298.96 241.623 295.075 244.805 290.043 247.025C285.011 249.245 279.017 250.355 272.061 250.355H248.418L256.41 242.474V272H238.428ZM287.823 272L268.398 243.806H287.601L307.248 272H287.823ZM256.41 244.472L248.418 236.036H271.062C276.612 236.036 280.756 234.852 283.494 232.484C286.232 230.042 287.601 226.712 287.601 222.494C287.601 218.202 286.232 214.872 283.494 212.504C280.756 210.136 276.612 208.952 271.062 208.952H248.418L256.41 200.405V244.472ZM357.792 273.332C351.65 273.332 345.952 272.333 340.698 270.335C335.518 268.337 331.004 265.525 327.156 261.899C323.382 258.273 320.422 254.018 318.276 249.134C316.204 244.25 315.168 238.922 315.168 233.15C315.168 227.378 316.204 222.05 318.276 217.166C320.422 212.282 323.419 208.027 327.267 204.401C331.115 200.775 335.629 197.963 340.809 195.965C345.989 193.967 351.613 192.968 357.681 192.968C363.823 192.968 369.447 193.967 374.553 195.965C379.733 197.963 384.21 200.775 387.984 204.401C391.832 208.027 394.829 212.282 396.975 217.166C399.121 221.976 400.194 227.304 400.194 233.15C400.194 238.922 399.121 244.287 396.975 249.245C394.829 254.129 391.832 258.384 387.984 262.01C384.21 265.562 379.733 268.337 374.553 270.335C369.447 272.333 363.86 273.332 357.792 273.332ZM357.681 258.014C361.159 258.014 364.341 257.422 367.227 256.238C370.187 255.054 372.777 253.352 374.997 251.132C377.217 248.912 378.919 246.285 380.103 243.251C381.361 240.217 381.99 236.85 381.99 233.15C381.99 229.45 381.361 226.083 380.103 223.049C378.919 220.015 377.217 217.388 374.997 215.168C372.851 212.948 370.298 211.246 367.338 210.062C364.378 208.878 361.159 208.286 357.681 208.286C354.203 208.286 350.984 208.878 348.024 210.062C345.138 211.246 342.585 212.948 340.365 215.168C338.145 217.388 336.406 220.015 335.148 223.049C333.964 226.083 333.372 229.45 333.372 233.15C333.372 236.776 333.964 240.143 335.148 243.251C336.406 246.285 338.108 248.912 340.254 251.132C342.474 253.352 345.064 255.054 348.024 256.238C350.984 257.422 354.203 258.014 357.681 258.014ZM419.728 272V200.96L427.498 208.73H404.188V194.3H437.71V272H419.728ZM484.508 273.332C478.144 273.332 472.446 271.778 467.414 268.67C462.382 265.488 458.423 260.9 455.537 254.906C452.651 248.912 451.208 241.66 451.208 233.15C451.208 224.64 452.651 217.388 455.537 211.394C458.423 205.4 462.382 200.849 467.414 197.741C472.446 194.559 478.144 192.968 484.508 192.968C490.946 192.968 496.644 194.559 501.602 197.741C506.634 200.849 510.593 205.4 513.479 211.394C516.365 217.388 517.808 224.64 517.808 233.15C517.808 241.66 516.365 248.912 513.479 254.906C510.593 260.9 506.634 265.488 501.602 268.67C496.644 271.778 490.946 273.332 484.508 273.332ZM484.508 258.125C487.542 258.125 490.169 257.274 492.389 255.572C494.683 253.87 496.459 251.169 497.717 247.469C499.049 243.769 499.715 238.996 499.715 233.15C499.715 227.304 499.049 222.531 497.717 218.831C496.459 215.131 494.683 212.43 492.389 210.728C490.169 209.026 487.542 208.175 484.508 208.175C481.548 208.175 478.921 209.026 476.627 210.728C474.407 212.43 472.631 215.131 471.299 218.831C470.041 222.531 469.412 227.304 469.412 233.15C469.412 238.996 470.041 243.769 471.299 247.469C472.631 251.169 474.407 253.87 476.627 255.572C478.921 257.274 481.548 258.125 484.508 258.125ZM559.845 273.332C553.481 273.332 547.783 271.778 542.751 268.67C537.719 265.488 533.76 260.9 530.874 254.906C527.988 248.912 526.545 241.66 526.545 233.15C526.545 224.64 527.988 217.388 530.874 211.394C533.76 205.4 537.719 200.849 542.751 197.741C547.783 194.559 553.481 192.968 559.845 192.968C566.283 192.968 571.981 194.559 576.939 197.741C581.971 200.849 585.93 205.4 588.816 211.394C591.702 217.388 593.145 224.64 593.145 233.15C593.145 241.66 591.702 248.912 588.816 254.906C585.93 260.9 581.971 265.488 576.939 268.67C571.981 271.778 566.283 273.332 559.845 273.332ZM559.845 258.125C562.879 258.125 565.506 257.274 567.726 255.572C570.02 253.87 571.796 251.169 573.054 247.469C574.386 243.769 575.052 238.996 575.052 233.15C575.052 227.304 574.386 222.531 573.054 218.831C571.796 215.131 570.02 212.43 567.726 210.728C565.506 209.026 562.879 208.175 559.845 208.175C556.885 208.175 554.258 209.026 551.964 210.728C549.744 212.43 547.968 215.131 546.636 218.831C545.378 222.531 544.749 227.304 544.749 233.15C544.749 238.996 545.378 243.769 546.636 247.469C547.968 251.169 549.744 253.87 551.964 255.572C554.258 257.274 556.885 258.125 559.845 258.125Z" fill="black"/>
<path d="M614.225 273V220.5H636.95C641.65 220.5 645.7 221.275 649.1 222.825C652.5 224.325 655.125 226.5 656.975 229.35C658.825 232.2 659.75 235.6 659.75 239.55C659.75 243.45 658.825 246.825 656.975 249.675C655.125 252.475 652.5 254.625 649.1 256.125C645.7 257.625 641.65 258.375 636.95 258.375H620.975L626.375 253.05V273H614.225ZM647.6 273L634.475 253.95H647.45L660.725 273H647.6ZM626.375 254.4L620.975 248.7H636.275C640.025 248.7 642.825 247.9 644.675 246.3C646.525 244.65 647.45 242.4 647.45 239.55C647.45 236.65 646.525 234.4 644.675 232.8C642.825 231.2 640.025 230.4 636.275 230.4H620.975L626.375 224.625V254.4ZM680.551 241.65H705.826V251.1H680.551V241.65ZM681.451 263.25H710.026V273H669.376V220.5H709.051V230.25H681.451V263.25ZM719.694 273V220.5H729.744L752.094 257.55H746.769L768.744 220.5H778.719L778.869 273H767.469L767.394 237.975H769.494L751.944 267.45H746.469L728.544 237.975H731.094V273H719.694ZM816.825 273.9C812.675 273.9 808.825 273.225 805.275 271.875C801.775 270.525 798.725 268.625 796.125 266.175C793.575 263.725 791.575 260.85 790.125 257.55C788.725 254.25 788.025 250.65 788.025 246.75C788.025 242.85 788.725 239.25 790.125 235.95C791.575 232.65 793.6 229.775 796.2 227.325C798.8 224.875 801.85 222.975 805.35 221.625C808.85 220.275 812.65 219.6 816.75 219.6C820.9 219.6 824.7 220.275 828.15 221.625C831.65 222.975 834.675 224.875 837.225 227.325C839.825 229.775 841.85 232.65 843.3 235.95C844.75 239.2 845.475 242.8 845.475 246.75C845.475 250.65 844.75 254.275 843.3 257.625C841.85 260.925 839.825 263.8 837.225 266.25C834.675 268.65 831.65 270.525 828.15 271.875C824.7 273.225 820.925 273.9 816.825 273.9ZM816.75 263.55C819.1 263.55 821.25 263.15 823.2 262.35C825.2 261.55 826.95 260.4 828.45 258.9C829.95 257.4 831.1 255.625 831.9 253.575C832.75 251.525 833.175 249.25 833.175 246.75C833.175 244.25 832.75 241.975 831.9 239.925C831.1 237.875 829.95 236.1 828.45 234.6C827 233.1 825.275 231.95 823.275 231.15C821.275 230.35 819.1 229.95 816.75 229.95C814.4 229.95 812.225 230.35 810.225 231.15C808.275 231.95 806.55 233.1 805.05 234.6C803.55 236.1 802.375 237.875 801.525 239.925C800.725 241.975 800.325 244.25 800.325 246.75C800.325 249.2 800.725 251.475 801.525 253.575C802.375 255.625 803.525 257.4 804.975 258.9C806.475 260.4 808.225 261.55 810.225 262.35C812.225 263.15 814.4 263.55 816.75 263.55ZM854.606 273V220.5H864.656L895.631 258.3H890.756V220.5H902.756V273H892.781L861.731 235.2H866.606V273H854.606ZM926.052 273V230.4H909.252V220.5H955.002V230.4H938.202V273H926.052Z" fill="#555555" fill-opacity="0.333333"/>
<path d="M811.925 202.225C809.705 202.225 807.995 201.625 806.795 200.425C805.595 199.225 804.995 197.53 804.995 195.34V173.155H808.19V195.16C808.19 196.54 808.535 197.605 809.225 198.355C809.945 199.105 810.965 199.48 812.285 199.48C813.695 199.48 814.865 199.075 815.795 198.265L816.92 200.56C816.29 201.13 815.525 201.55 814.625 201.82C813.755 202.09 812.855 202.225 811.925 202.225ZM800.765 181.03V178.375H815.39V181.03H800.765ZM829.362 202L820.452 178.375H823.512L831.612 200.29H830.217L838.542 178.375H841.287L849.522 200.29H848.127L856.362 178.375H859.287L850.332 202H847.317L839.397 181.39H840.342L832.377 202H829.362ZM875.318 202.225C873.038 202.225 870.983 201.715 869.153 200.695C867.353 199.645 865.928 198.22 864.878 196.42C863.828 194.59 863.303 192.505 863.303 190.165C863.303 187.795 863.828 185.71 864.878 183.91C865.928 182.11 867.353 180.7 869.153 179.68C870.953 178.66 873.008 178.15 875.318 178.15C877.658 178.15 879.728 178.66 881.528 179.68C883.358 180.7 884.783 182.11 885.803 183.91C886.853 185.71 887.378 187.795 887.378 190.165C887.378 192.505 886.853 194.59 885.803 196.42C884.783 198.22 883.358 199.645 881.528 200.695C879.698 201.715 877.628 202.225 875.318 202.225ZM875.318 199.39C877.028 199.39 878.543 199.015 879.863 198.265C881.183 197.485 882.218 196.405 882.968 195.025C883.748 193.615 884.138 191.995 884.138 190.165C884.138 188.305 883.748 186.685 882.968 185.305C882.218 183.925 881.183 182.86 879.863 182.11C878.543 181.33 877.043 180.94 875.363 180.94C873.683 180.94 872.183 181.33 870.863 182.11C869.543 182.86 868.493 183.925 867.713 185.305C866.933 186.685 866.543 188.305 866.543 190.165C866.543 191.995 866.933 193.615 867.713 195.025C868.493 196.405 869.543 197.485 870.863 198.265C872.183 199.015 873.668 199.39 875.318 199.39ZM892.641 210.955C891.681 210.955 890.766 210.82 889.896 210.55C888.996 210.31 888.246 209.935 887.646 209.425L888.771 206.995C889.731 207.805 890.961 208.21 892.461 208.21C893.721 208.21 894.681 207.835 895.341 207.085C896.031 206.335 896.376 205.225 896.376 203.755V178.375H899.571V203.755C899.571 205.945 898.971 207.685 897.771 208.975C896.601 210.295 894.891 210.955 892.641 210.955ZM897.996 173.155C897.336 173.155 896.781 172.93 896.331 172.48C895.881 172.03 895.656 171.49 895.656 170.86C895.656 170.23 895.881 169.705 896.331 169.285C896.781 168.835 897.336 168.61 897.996 168.61C898.656 168.61 899.211 168.82 899.661 169.24C900.111 169.66 900.336 170.185 900.336 170.815C900.336 171.475 900.111 172.03 899.661 172.48C899.241 172.93 898.686 173.155 897.996 173.155Z" fill="black"/>
<path d="M154.7 336V301H167.8C170.767 301 173.317 301.483 175.45 302.45C177.583 303.383 179.217 304.75 180.35 306.55C181.517 308.317 182.1 310.467 182.1 313C182.1 315.467 181.517 317.6 180.35 319.4C179.217 321.167 177.583 322.533 175.45 323.5C173.317 324.433 170.767 324.9 167.8 324.9H156.75L158.4 323.2V336H154.7ZM178.6 336L169.6 323.3H173.6L182.65 336H178.6ZM158.4 323.5L156.75 321.75H167.7C171.2 321.75 173.85 320.983 175.65 319.45C177.483 317.917 178.4 315.767 178.4 313C178.4 310.2 177.483 308.033 175.65 306.5C173.85 304.967 171.2 304.2 167.7 304.2H156.75L158.4 302.45V323.5ZM194.633 316.65H213.133V319.8H194.633V316.65ZM195.033 332.8H216.083V336H191.333V301H215.333V304.2H195.033V332.8ZM228.48 327.3L228.33 322.8L249.53 301H253.78L238.33 317.2L236.23 319.45L228.48 327.3ZM225.28 336V301H228.98V336H225.28ZM250.43 336L235.33 318.6L237.83 315.9L254.83 336H250.43ZM275.357 336.3C272.724 336.3 270.274 335.867 268.007 335C265.774 334.1 263.824 332.85 262.157 331.25C260.524 329.617 259.241 327.733 258.307 325.6C257.407 323.433 256.957 321.067 256.957 318.5C256.957 315.933 257.407 313.583 258.307 311.45C259.241 309.283 260.524 307.4 262.157 305.8C263.824 304.167 265.774 302.917 268.007 302.05C270.241 301.15 272.691 300.7 275.357 300.7C277.991 300.7 280.424 301.15 282.657 302.05C284.891 302.917 286.824 304.15 288.457 305.75C290.124 307.35 291.407 309.233 292.307 311.4C293.241 313.567 293.707 315.933 293.707 318.5C293.707 321.067 293.241 323.433 292.307 325.6C291.407 327.767 290.124 329.65 288.457 331.25C286.824 332.85 284.891 334.1 282.657 335C280.424 335.867 277.991 336.3 275.357 336.3ZM275.357 333C277.457 333 279.391 332.65 281.157 331.95C282.957 331.217 284.507 330.2 285.807 328.9C287.141 327.567 288.174 326.033 288.907 324.3C289.641 322.533 290.007 320.6 290.007 318.5C290.007 316.4 289.641 314.483 288.907 312.75C288.174 310.983 287.141 309.45 285.807 308.15C284.507 306.817 282.957 305.8 281.157 305.1C279.391 304.367 277.457 304 275.357 304C273.257 304 271.307 304.367 269.507 305.1C267.707 305.8 266.141 306.817 264.807 308.15C263.507 309.45 262.474 310.983 261.707 312.75C260.974 314.483 260.607 316.4 260.607 318.5C260.607 320.567 260.974 322.483 261.707 324.25C262.474 326.017 263.507 327.567 264.807 328.9C266.141 330.2 267.707 331.217 269.507 331.95C271.307 332.65 273.257 333 275.357 333ZM302.501 336V301H305.551L329.701 331.4H328.101V301H331.751V336H328.701L304.601 305.6H306.201V336H302.501ZM353.325 336.3C350.725 336.3 348.225 335.883 345.825 335.05C343.458 334.183 341.625 333.083 340.325 331.75L341.775 328.9C343.008 330.1 344.658 331.117 346.725 331.95C348.825 332.75 351.025 333.15 353.325 333.15C355.525 333.15 357.308 332.883 358.675 332.35C360.075 331.783 361.091 331.033 361.725 330.1C362.391 329.167 362.725 328.133 362.725 327C362.725 325.633 362.325 324.533 361.525 323.7C360.758 322.867 359.741 322.217 358.475 321.75C357.208 321.25 355.808 320.817 354.275 320.45C352.741 320.083 351.208 319.7 349.675 319.3C348.141 318.867 346.725 318.3 345.425 317.6C344.158 316.9 343.125 315.983 342.325 314.85C341.558 313.683 341.175 312.167 341.175 310.3C341.175 308.567 341.625 306.983 342.525 305.55C343.458 304.083 344.875 302.917 346.775 302.05C348.675 301.15 351.108 300.7 354.075 300.7C356.041 300.7 357.991 300.983 359.925 301.55C361.858 302.083 363.525 302.833 364.925 303.8L363.675 306.75C362.175 305.75 360.575 305.017 358.875 304.55C357.208 304.083 355.591 303.85 354.025 303.85C351.925 303.85 350.191 304.133 348.825 304.7C347.458 305.267 346.441 306.033 345.775 307C345.141 307.933 344.825 309 344.825 310.2C344.825 311.567 345.208 312.667 345.975 313.5C346.775 314.333 347.808 314.983 349.075 315.45C350.375 315.917 351.791 316.333 353.325 316.7C354.858 317.067 356.375 317.467 357.875 317.9C359.408 318.333 360.808 318.9 362.075 319.6C363.375 320.267 364.408 321.167 365.175 322.3C365.975 323.433 366.375 324.917 366.375 326.75C366.375 328.45 365.908 330.033 364.975 331.5C364.041 332.933 362.608 334.1 360.675 335C358.775 335.867 356.325 336.3 353.325 336.3ZM381.248 336V304.2H368.948V301H397.248V304.2H384.948V336H381.248ZM403.659 336V301H416.759C419.726 301 422.276 301.483 424.409 302.45C426.542 303.383 428.176 304.75 429.309 306.55C430.476 308.317 431.059 310.467 431.059 313C431.059 315.467 430.476 317.6 429.309 319.4C428.176 321.167 426.542 322.533 424.409 323.5C422.276 324.433 419.726 324.9 416.759 324.9H405.709L407.359 323.2V336H403.659ZM427.559 336L418.559 323.3H422.559L431.609 336H427.559ZM407.359 323.5L405.709 321.75H416.659C420.159 321.75 422.809 320.983 424.609 319.45C426.442 317.917 427.359 315.767 427.359 313C427.359 310.2 426.442 308.033 424.609 306.5C422.809 304.967 420.159 304.2 416.659 304.2H405.709L407.359 302.45V323.5ZM454.392 336.3C449.925 336.3 446.408 335.017 443.842 332.45C441.275 329.883 439.992 326.083 439.992 321.05V301H443.692V320.9C443.692 325.033 444.625 328.083 446.492 330.05C448.358 332.017 450.992 333 454.392 333C457.825 333 460.475 332.017 462.342 330.05C464.208 328.083 465.142 325.033 465.142 320.9V301H468.742V321.05C468.742 326.083 467.458 329.883 464.892 332.45C462.358 335.017 458.858 336.3 454.392 336.3ZM483.591 327.3L483.441 322.8L504.641 301H508.891L493.441 317.2L491.341 319.45L483.591 327.3ZM480.391 336V301H484.091V336H480.391ZM505.541 336L490.441 318.6L492.941 315.9L509.941 336H505.541ZM530.369 336.3C527.735 336.3 525.302 335.867 523.069 335C520.835 334.1 518.902 332.85 517.269 331.25C515.635 329.65 514.352 327.767 513.419 325.6C512.519 323.433 512.069 321.067 512.069 318.5C512.069 315.933 512.519 313.567 513.419 311.4C514.352 309.233 515.635 307.35 517.269 305.75C518.935 304.15 520.885 302.917 523.119 302.05C525.352 301.15 527.785 300.7 530.419 300.7C532.952 300.7 535.335 301.133 537.569 302C539.802 302.833 541.685 304.1 543.219 305.8L540.869 308.15C539.435 306.683 537.852 305.633 536.119 305C534.385 304.333 532.519 304 530.519 304C528.419 304 526.469 304.367 524.669 305.1C522.869 305.8 521.302 306.817 519.969 308.15C518.635 309.45 517.585 310.983 516.819 312.75C516.085 314.483 515.719 316.4 515.719 318.5C515.719 320.6 516.085 322.533 516.819 324.3C517.585 326.033 518.635 327.567 519.969 328.9C521.302 330.2 522.869 331.217 524.669 331.95C526.469 332.65 528.419 333 530.519 333C532.519 333 534.385 332.667 536.119 332C537.852 331.333 539.435 330.267 540.869 328.8L543.219 331.15C541.685 332.85 539.802 334.133 537.569 335C535.335 335.867 532.935 336.3 530.369 336.3ZM555.356 336.3C553.39 336.3 551.54 335.867 549.806 335C548.106 334.133 546.74 332.9 545.706 331.3L547.856 328.8C548.823 330.2 549.94 331.267 551.206 332C552.473 332.733 553.873 333.1 555.406 333.1C559.74 333.1 561.906 330.533 561.906 325.4V304.2H549.106V301H565.556V325.25C565.556 328.95 564.69 331.717 562.956 333.55C561.256 335.383 558.723 336.3 555.356 336.3ZM570.823 336L586.823 301H590.473L606.473 336H602.573L587.873 303.15H589.373L574.673 336H570.823ZM577.123 326.65L578.223 323.65H598.573L599.673 326.65H577.123ZM623.648 324V320.9H636.748V324H623.648ZM659.526 336V301H674.626C678.526 301 681.543 301.783 683.676 303.35C685.843 304.917 686.926 307.133 686.926 310C686.926 311.9 686.476 313.5 685.576 314.8C684.71 316.1 683.51 317.083 681.976 317.75C680.476 318.417 678.826 318.75 677.026 318.75L677.876 317.55C680.11 317.55 682.026 317.9 683.626 318.6C685.26 319.267 686.526 320.283 687.426 321.65C688.326 322.983 688.776 324.65 688.776 326.65C688.776 329.617 687.676 331.917 685.476 333.55C683.31 335.183 680.026 336 675.626 336H659.526ZM663.226 332.95H675.576C678.643 332.95 680.993 332.433 682.626 331.4C684.26 330.333 685.076 328.65 685.076 326.35C685.076 324.083 684.26 322.433 682.626 321.4C680.993 320.333 678.643 319.8 675.576 319.8H662.826V316.75H674.376C677.176 316.75 679.343 316.217 680.876 315.15C682.443 314.083 683.226 312.5 683.226 310.4C683.226 308.267 682.443 306.683 680.876 305.65C679.343 304.583 677.176 304.05 674.376 304.05H663.226V332.95ZM711.821 336.3C707.355 336.3 703.838 335.017 701.271 332.45C698.705 329.883 697.421 326.083 697.421 321.05V301H701.121V320.9C701.121 325.033 702.055 328.083 703.921 330.05C705.788 332.017 708.421 333 711.821 333C715.255 333 717.905 332.017 719.771 330.05C721.638 328.083 722.571 325.033 722.571 320.9V301H726.171V321.05C726.171 326.083 724.888 329.883 722.321 332.45C719.788 335.017 716.288 336.3 711.821 336.3ZM737.821 336V301H752.071C755.804 301 759.071 301.75 761.871 303.25C764.704 304.717 766.904 306.767 768.471 309.4C770.038 312.033 770.821 315.067 770.821 318.5C770.821 321.933 770.038 324.967 768.471 327.6C766.904 330.233 764.704 332.3 761.871 333.8C759.071 335.267 755.804 336 752.071 336H737.821ZM741.521 332.8H751.871C754.971 332.8 757.654 332.2 759.921 331C762.221 329.767 764.004 328.083 765.271 325.95C766.538 323.783 767.171 321.3 767.171 318.5C767.171 315.667 766.538 313.183 765.271 311.05C764.004 308.917 762.221 307.25 759.921 306.05C757.654 304.817 754.971 304.2 751.871 304.2H741.521V332.8ZM794.93 336.3C792.296 336.3 789.846 335.867 787.58 335C785.346 334.1 783.396 332.85 781.73 331.25C780.096 329.617 778.813 327.733 777.88 325.6C776.98 323.433 776.53 321.067 776.53 318.5C776.53 315.933 776.98 313.583 777.88 311.45C778.813 309.283 780.096 307.4 781.73 305.8C783.396 304.167 785.346 302.917 787.58 302.05C789.813 301.15 792.263 300.7 794.93 300.7C797.563 300.7 799.996 301.15 802.23 302.05C804.463 302.917 806.396 304.15 808.03 305.75C809.696 307.35 810.98 309.233 811.88 311.4C812.813 313.567 813.28 315.933 813.28 318.5C813.28 321.067 812.813 323.433 811.88 325.6C810.98 327.767 809.696 329.65 808.03 331.25C806.396 332.85 804.463 334.1 802.23 335C799.996 335.867 797.563 336.3 794.93 336.3ZM794.93 333C797.03 333 798.963 332.65 800.73 331.95C802.53 331.217 804.08 330.2 805.38 328.9C806.713 327.567 807.746 326.033 808.48 324.3C809.213 322.533 809.58 320.6 809.58 318.5C809.58 316.4 809.213 314.483 808.48 312.75C807.746 310.983 806.713 309.45 805.38 308.15C804.08 306.817 802.53 305.8 800.73 305.1C798.963 304.367 797.03 304 794.93 304C792.83 304 790.88 304.367 789.08 305.1C787.28 305.8 785.713 306.817 784.38 308.15C783.08 309.45 782.046 310.983 781.28 312.75C780.546 314.483 780.18 316.4 780.18 318.5C780.18 320.567 780.546 322.483 781.28 324.25C782.046 326.017 783.08 327.567 784.38 328.9C785.713 330.2 787.28 331.217 789.08 331.95C790.88 332.65 792.83 333 794.93 333ZM828.998 336L817.198 301H820.998L832.048 333.95H830.148L841.548 301H844.948L856.198 333.95H854.398L865.548 301H869.098L857.298 336H853.398L842.648 304.75H843.648L832.848 336H828.998ZM869.707 336L885.707 301H889.357L905.357 336H901.457L886.757 303.15H888.257L873.557 336H869.707ZM876.007 326.65L877.107 323.65H897.457L898.557 326.65H876.007Z" fill="black"/>
</svg>
